<svg width="1024" height="1024" viewBox="0 0 1024 1024" fill="none" xmlns="http://www.w3.org/2000/svg">
  <rect width="1024" height="1024" rx="228" fill="#102A24"/>
  <rect x="72" y="72" width="880" height="880" rx="196" fill="url(#panel)"/>
  <path d="M276 284C276 248.654 304.654 220 340 220H684C719.346 220 748 248.654 748 284V740C748 775.346 719.346 804 684 804H340C304.654 804 276 775.346 276 740V284Z" fill="#F5E8D2"/>
  <path d="M360 372C360 336.654 388.654 308 424 308H600C635.346 308 664 336.654 664 372V404C664 439.346 635.346 468 600 468H424C388.654 468 360 439.346 360 404V372Z" fill="#153A31"/>
  <path d="M360 544C360 508.654 388.654 480 424 480H600C635.346 480 664 508.654 664 544V652C664 687.346 635.346 716 600 716H424C388.654 716 360 687.346 360 652V544Z" fill="#D6A14B"/>
  <path d="M424 626C404.118 626 388 609.882 388 590C388 570.118 404.118 554 424 554H528C547.882 554 564 570.118 564 590C564 609.882 547.882 626 528 626H424Z" fill="#153A31"/>
  <path d="M402 390C402 329.249 451.249 280 512 280V324C475.549 324 446 353.549 446 390C446 426.451 475.549 456 512 456H564V500H512C451.249 500 402 450.751 402 390Z" fill="#F5E8D2"/>
  <path d="M620 630C595.699 630 576 610.301 576 586V552C576 527.699 595.699 508 620 508C644.301 508 664 527.699 664 552V586C664 610.301 644.301 630 620 630Z" fill="#153A31"/>
  <defs>
    <linearGradient id="panel" x1="128" y1="112" x2="908" y2="928" gradientUnits="userSpaceOnUse">
      <stop stop-color="#173C33"/>
      <stop offset="1" stop-color="#215549"/>
    </linearGradient>
  </defs>
</svg>
